Coordinates
version=1
nRows=4
nColumns=107
inDegrees=yes

Units are S.I. units (second, meters, Newtons, ...)
If the header above contains a line with 'inDegrees', this indicates whether rotational values are in degrees (yes) or radians (no).

endheader
time	sternoclavicular_r2	sternoclavicular_r3	unrotscap_r3	unrotscap_r2	acromioclavicular_r2	acromioclavicular_r3	acromioclavicular_r1	unrothum_r1	unrothum_r3	unrothum_r2	elv_angle	shoulder_elv	shoulder1_r2	shoulder_rot	elbow_flexion	pro_sup	deviation	flexion	proximal_distal_r1	proximal_distal_r3	cmc_flexion	cmc_abduction	mp_flexion	ip_flexion	mcp2_flexion	mcp2_abduction	pm2_flexion	md2_flexion	mcp3_flexion	mcp3_abduction	pm3_flexion	md3_flexion	mcp4_flexion	mcp4_abduction	pm4_flexion	md4_flexion	mcp5_flexion	mcp5_abduction	pm5_flexion	md5_flexion	bicpt_tx	bicpt_ty	bicpt_tz	bicpt2_tx	bicpt2_ty	bicpt2_tz	ptpt_tx	ptpt_ty	ptpt_tz	FCUpt_tx	FCUpt_ty	FCUpt_tz	EDCpt_tx	EDCpt_ty	EDCpt_tz	APLpt_tx	APLpt_ty	APLpt_tz	FPLpt_tx	FPLpt_ty	FPLpt_tz	FPLpt2_tx	FPLpt2_ty	FPLpt2_tz	PEC1pt2_tx	PEC1pt2_ty	PEC1pt2_tz	PEC1pt3_tx	PEC1pt3_ty	PEC1pt3_tz	PEC2pt2_tx	PEC2pt2_ty	PEC2pt2_tz	PEC2pt3_tx	PEC2pt3_ty	PEC2pt3_tz	PEC3pt2_tx	PEC3pt2_ty	PEC3pt2_tz	PEC3pt3_tx	PEC3pt3_ty	PEC3pt3_tz	DELT2pt2a_tx	DELT2pt2a_ty	DELT2pt2a_tz	DELT2pt2_tx	DELT2pt2_ty	DELT2pt2_tz	LAT1pt2_tx	LAT1pt2_ty	LAT1pt2_tz	LAT1pt3_tx	LAT1pt3_ty	LAT1pt3_tz	LAT2pt2_tx	LAT2pt2_ty	LAT2pt2_tz	LAT2pt3_tx	LAT2pt3_ty	LAT2pt3_tz	LAT3pt2_tx	LAT3pt2_ty	LAT3pt2_tz	LAT3pt3_tx	LAT3pt3_ty	LAT3pt3_tz
      0.50000000	     -0.32205646	      0.13640792	     -0.13640792	      0.32205646	     -0.06520988	      0.52700333	      0.23688437	     -0.23688437	     -0.52700333	      0.06520988	     99.24635026	     76.24972928	     -1.73217558	    -22.58234420	     28.77228732	     27.62258645	      0.09306645	     -0.59656080	      0.11921547	     -0.29828040	     -3.35408737	     -4.43111075	    -29.97522944	    -44.32460870	     -4.18444966	      7.39237000	     21.09042077	    -21.68668871	     31.91915179	      9.82701712	     82.90017934	     66.08157925	     25.70756048	     -2.06038460	     81.91984130	     50.39692424	     11.22358281	    -13.42428374	     -7.79913995	      5.05438147	      0.00085170	     -0.03089774	     -0.00483118	      0.01637604	     -0.01801613	     -0.00868394	      0.00550900	     -0.06621974	     -0.00227515	      0.00655774	     -0.18373079	     -0.00024087	     -0.00331470	      0.00090039	      0.00019376	      0.00031233	      0.00012493	      0.00062466	      0.00039978	      0.00119935	      0.00067463	     -0.00018898	      0.00009006	      0.00010807	      0.00249930	      0.00876873	      0.00609998	     -0.00817567	      0.01974022	     -0.01872356	      0.00249930	      0.00876873	      0.00609998	      0.00055069	      0.01829995	     -0.00961595	      0.00395107	      0.00487618	      0.01597529	      0.00000000	      0.00777558	      0.00000000	     -0.00715901	     -0.03308394	     -0.00641130	      0.01522181	     -0.00051254	     -0.00424625	     -0.00088958	      0.01491107	     -0.00609998	      0.00245694	      0.02151939	     -0.01779162	     -0.00597290	      0.01292010	     -0.00546457	     -0.01245413	      0.02728048	     -0.03054228	     -0.02338327	      0.01444510	     -0.00732845	     -0.01550412	      0.03151658	     -0.03816726
      0.53333333	     -0.32240134	      0.13655399	     -0.13655399	      0.32240134	     -0.06527971	      0.52756768	      0.23713804	     -0.23713804	     -0.52756768	      0.06527971	     99.19638708	     76.33138276	     -1.73130356	    -22.00295198	     28.46059207	     25.95831197	      0.06529376	     -0.66968518	      0.08512334	     -0.33484259	     -3.08337427	     -4.30634929	    -30.33490020	    -45.99853791	     -2.89281418	      6.82803361	     19.11145546	    -20.43269097	     32.65591612	      9.44601285	     82.28725767	     67.82654070	     25.55254640	     -2.61916952	     81.90079445	     51.58193398	     10.85329045	    -13.53822350	     -7.78204495	      4.99380326	      0.00084139	     -0.03086202	     -0.00482543	      0.01632264	     -0.01793146	     -0.00883078	      0.00563197	     -0.06614023	     -0.00214108	      0.00639696	     -0.18375917	     -0.00021250	     -0.00311499	      0.00083947	      0.00019380	      0.00030960	      0.00012384	      0.00061921	      0.00039629	      0.00118888	      0.00066874	     -0.00016675	      0.00008236	      0.00009883	      0.00250198	      0.00877812	      0.00610652	     -0.00818443	      0.01976136	     -0.01874361	      0.00250198	      0.00877812	      0.00610652	      0.00055128	      0.01831955	     -0.00962624	      0.00395416	      0.00488140	      0.01598282	      0.00000000	      0.00779236	      0.00000000	     -0.00716667	     -0.03311937	     -0.00642523	      0.01490526	     -0.00049424	     -0.00402466	     -0.00089053	      0.01492704	     -0.00610652	      0.00245957	      0.02154243	     -0.01781067	     -0.00597930	      0.01293394	     -0.00547042	     -0.01246747	      0.02730970	     -0.03057499	     -0.02340831	      0.01446057	     -0.00733630	     -0.01552073	      0.03155033	     -0.03820813
      0.56666667	     -0.32283149	      0.13673618	     -0.13673618	      0.32283149	     -0.06536681	      0.52827156	      0.23745443	     -0.23745443	     -0.52827156	      0.06536681	     99.03162046	     76.43322456	     -1.72842784	    -21.57829861	     28.83189579	     26.33670809	      0.10140790	     -0.58612662	      0.12920787	     -0.29306331	     -3.57685467	     -4.40911922	    -29.87511925	    -44.17209120	     -4.23184121	      7.69930920	     21.42936968	    -21.77681545	     32.45991663	      9.75692232	     82.48483953	     66.81074066	     25.32660119	     -2.05403565	     81.51922909	     50.38846457	     11.49166446	    -13.28025656	     -9.29630285	      5.01856659	      0.00085367	     -0.03090458	     -0.00483228	      0.01633536	     -0.01803233	     -0.00879774	      0.00560401	     -0.06615831	     -0.00217156	      0.00643344	     -0.18375279	     -0.00021914	     -0.00316040	      0.00085324	      0.00019392	      0.00031200	      0.00012480	      0.00062400	      0.00039936	      0.00119807	      0.00067391	     -0.00020984	      0.00009653	      0.00011583	      0.00250531	      0.00878983	      0.00611466	     -0.00819535	      0.01978773	     -0.01876862	      0.00250531	      0.00878983	      0.00611466	      0.00055202	      0.01834399	     -0.00963909	      0.00395801	      0.00488791	      0.01599220	      0.00000000	      0.00781331	      0.00000000	     -0.00717624	     -0.03316355	     -0.00644262	      0.01467037	     -0.00048090	     -0.00386550	     -0.00089172	      0.01494695	     -0.00611466	      0.00246285	      0.02157117	     -0.01783443	     -0.00598727	      0.01295120	     -0.00547772	     -0.01248410	      0.02734613	     -0.03061578	     -0.02343954	      0.01447986	     -0.00734609	     -0.01554144	      0.03159243	     -0.03825911
      0.60000000	     -0.32187214	      0.13632985	     -0.13632985	      0.32187214	     -0.06517256	      0.52670172	      0.23674880	     -0.23674880	     -0.52670172	      0.06517256	     99.33017676	     76.20609109	     -1.73363863	    -22.66750155	     28.46344884	     26.51102728	      0.06403845	     -0.66793232	      0.08355261	     -0.33396616	     -3.20486857	     -4.14255828	    -30.26543416	    -45.98707610	     -3.00150086	      6.95585039	     19.50132046	    -20.28965992	     32.70364258	      9.35962267	     82.21843113	     67.74368021	     25.73265650	     -2.61306349	     81.53908056	     51.74224194	     10.97012655	    -13.52397169	     -7.37666532	      4.98372996	      0.00084148	     -0.03086235	     -0.00482548	      0.01634108	     -0.01793224	     -0.00878244	      0.00559113	     -0.06616664	     -0.00218561	      0.00645026	     -0.18374983	     -0.00022215	     -0.00318132	      0.00085961	      0.00019395	      0.00030977	      0.00012391	      0.00061955	      0.00039651	      0.00118953	      0.00066911	     -0.00017704	      0.00008583	      0.00010299	      0.00249787	      0.00876371	      0.00609649	     -0.00817099	      0.01972893	     -0.01871284	      0.00249787	      0.00876371	      0.00609649	      0.00055038	      0.01828948	     -0.00961044	      0.00394942	      0.00487339	      0.01597126	      0.00000000	      0.00776662	      0.00000000	     -0.00715491	     -0.03306500	     -0.00640386	      0.01526796	     -0.00051524	     -0.00427924	     -0.00088907	      0.01490254	     -0.00609649	      0.00245553	      0.02150707	     -0.01778144	     -0.00596948	      0.01291271	     -0.00546144	     -0.01244701	      0.02726487	     -0.03052480	     -0.02336989	      0.01443683	     -0.00732426	     -0.01549525	      0.03149854	     -0.03814541
